<svg width="106" height="43" viewBox="0 0 106 43" fill="none" xmlns="http://www.w3.org/2000/svg">
<path d="M3.66602 0.400879L102.737 0.400879C104.309 0.400879 105.583 1.67492 105.583 3.24658V35.396C105.583 36.9677 104.309 38.2417 102.737 38.2417L54.0273 38.2417L53.9541 38.3149L50.1055 42.1577L46.2578 38.3149L46.1846 38.2417H3.66602C2.09442 38.2416 0.820432 36.9676 0.820312 35.396L0.820312 3.24658C0.820462 1.67501 2.09444 0.401026 3.66602 0.400879Z" stroke="#485B91" stroke-width="0.5"/>
<path d="M9.1995 15.333L11.8824 10.0258V9.97889H8.78945V9.33452H12.6322V10.014L9.96103 15.333H9.1995ZM13.6415 15.333V14.8058L15.6215 12.6384C15.8538 12.3845 16.0452 12.1639 16.1956 11.9764C16.3459 11.787 16.4572 11.6093 16.5295 11.4434C16.6037 11.2754 16.6408 11.0997 16.6408 10.9162C16.6408 10.7053 16.59 10.5227 16.4885 10.3684C16.3889 10.2142 16.2522 10.0951 16.0784 10.0111C15.9046 9.92715 15.7094 9.88516 15.4926 9.88516C15.2622 9.88516 15.0611 9.933 14.8892 10.0287C14.7194 10.1224 14.5876 10.2542 14.4938 10.4241C14.4021 10.594 14.3562 10.7931 14.3562 11.0216H13.6649C13.6649 10.6701 13.746 10.3616 13.9081 10.096C14.0701 9.83049 14.2908 9.62351 14.57 9.47511C14.8512 9.32671 15.1665 9.25251 15.516 9.25251C15.8675 9.25251 16.179 9.32671 16.4504 9.47511C16.7218 9.62351 16.9346 9.82366 17.0889 10.0755C17.2431 10.3274 17.3203 10.6076 17.3203 10.9162C17.3203 11.1368 17.2802 11.3526 17.2002 11.5635C17.1221 11.7724 16.9854 12.0057 16.7901 12.2635C16.5968 12.5193 16.3283 12.8317 15.9847 13.2007L14.6374 14.6418V14.6886H17.4257V15.333H13.6415ZM19.0684 15.3799C18.9239 15.3799 18.7999 15.3281 18.6964 15.2246C18.5929 15.1211 18.5412 14.9972 18.5412 14.8527C18.5412 14.7082 18.5929 14.5842 18.6964 14.4807C18.7999 14.3772 18.9239 14.3254 19.0684 14.3254C19.2129 14.3254 19.3369 14.3772 19.4404 14.4807C19.5439 14.5842 19.5956 14.7082 19.5956 14.8527C19.5956 14.9483 19.5712 15.0362 19.5224 15.1163C19.4755 15.1963 19.4121 15.2608 19.332 15.3096C19.2539 15.3564 19.166 15.3799 19.0684 15.3799ZM22.5431 15.415C22.1565 15.415 21.8119 15.3486 21.5092 15.2158C21.2085 15.0831 20.9693 14.8985 20.7916 14.6623C20.6159 14.4241 20.5202 14.1478 20.5046 13.8334H21.2427C21.2583 14.0267 21.3247 14.1936 21.4418 14.3342C21.559 14.4729 21.7123 14.5803 21.9017 14.6564C22.0911 14.7326 22.301 14.7706 22.5314 14.7706C22.7891 14.7706 23.0176 14.7257 23.2168 14.6359C23.4159 14.5461 23.5722 14.4211 23.6854 14.261C23.7987 14.1009 23.8553 13.9154 23.8553 13.7045C23.8553 13.4839 23.8006 13.2896 23.6913 13.1217C23.5819 12.9518 23.4218 12.819 23.2109 12.7233C23 12.6276 22.7423 12.5798 22.4377 12.5798H21.9573V11.9354H22.4377C22.6759 11.9354 22.8848 11.8925 23.0645 11.8066C23.2461 11.7206 23.3876 11.5996 23.4892 11.4434C23.5927 11.2872 23.6444 11.1036 23.6444 10.8927C23.6444 10.6896 23.5995 10.5129 23.5097 10.3626C23.4198 10.2122 23.2929 10.0951 23.1289 10.0111C22.9668 9.92715 22.7755 9.88516 22.5548 9.88516C22.3479 9.88516 22.1526 9.92324 21.969 9.99939C21.7874 10.0736 21.639 10.182 21.5238 10.3245C21.4086 10.4651 21.3462 10.635 21.3364 10.8341H20.6334C20.6452 10.5198 20.7399 10.2444 20.9176 10.0082C21.0952 9.76996 21.3276 9.58446 21.6146 9.45168C21.9036 9.3189 22.2209 9.25251 22.5665 9.25251C22.9375 9.25251 23.2558 9.32769 23.5214 9.47804C23.7869 9.62644 23.991 9.82268 24.1335 10.0668C24.2761 10.3108 24.3473 10.5744 24.3473 10.8576C24.3473 11.1954 24.2585 11.4834 24.0808 11.7216C23.9051 11.9598 23.6659 12.1248 23.3632 12.2166V12.2635C23.742 12.326 24.0379 12.487 24.2507 12.7467C24.4635 13.0045 24.5699 13.3237 24.5699 13.7045C24.5699 14.0306 24.4811 14.3235 24.3034 14.5832C24.1277 14.8409 23.8875 15.044 23.5829 15.1924C23.2783 15.3408 22.9317 15.415 22.5431 15.415ZM28.7432 14.2083V13.892C28.7432 13.6733 28.7881 13.4731 28.878 13.2915C28.9697 13.108 29.1025 12.9615 29.2763 12.8522C29.452 12.7409 29.6649 12.6852 29.9148 12.6852C30.1687 12.6852 30.3815 12.7409 30.5533 12.8522C30.7252 12.9615 30.855 13.108 30.9429 13.2915C31.0307 13.4731 31.0747 13.6733 31.0747 13.892V14.2083C31.0747 14.427 31.0298 14.6281 30.9399 14.8117C30.8521 14.9932 30.7212 15.1397 30.5475 15.251C30.3756 15.3603 30.1647 15.415 29.9148 15.415C29.661 15.415 29.4472 15.3603 29.2734 15.251C29.0996 15.1397 28.9678 14.9932 28.878 14.8117C28.7881 14.6281 28.7432 14.427 28.7432 14.2083ZM29.3407 13.892V14.2083C29.3407 14.3899 29.3837 14.5529 29.4696 14.6974C29.5555 14.84 29.7039 14.9112 29.9148 14.9112C30.1198 14.9112 30.2643 14.84 30.3483 14.6974C30.4342 14.5529 30.4772 14.3899 30.4772 14.2083V13.892C30.4772 13.7104 30.4362 13.5483 30.3542 13.4058C30.2721 13.2613 30.1257 13.189 29.9148 13.189C29.7098 13.189 29.5624 13.2613 29.4725 13.4058C29.3847 13.5483 29.3407 13.7104 29.3407 13.892ZM25.7557 10.7756V10.4592C25.7557 10.2405 25.8006 10.0404 25.8904 9.8588C25.9822 9.67526 26.115 9.52881 26.2888 9.41946C26.4645 9.30816 26.6773 9.25251 26.9273 9.25251C27.1811 9.25251 27.394 9.30816 27.5658 9.41946C27.7376 9.52881 27.8675 9.67526 27.9553 9.8588C28.0432 10.0404 28.0871 10.2405 28.0871 10.4592V10.7756C28.0871 10.9943 28.0422 11.1954 27.9524 11.3789C27.8645 11.5605 27.7337 11.707 27.5599 11.8183C27.3881 11.9276 27.1772 11.9823 26.9273 11.9823C26.6734 11.9823 26.4596 11.9276 26.2858 11.8183C26.1121 11.707 25.9803 11.5605 25.8904 11.3789C25.8006 11.1954 25.7557 10.9943 25.7557 10.7756ZM26.3532 10.4592V10.7756C26.3532 10.9572 26.3962 11.1202 26.4821 11.2647C26.568 11.4072 26.7164 11.4785 26.9273 11.4785C27.1323 11.4785 27.2768 11.4072 27.3608 11.2647C27.4467 11.1202 27.4896 10.9572 27.4896 10.7756V10.4592C27.4896 10.2776 27.4486 10.1156 27.3666 9.97303C27.2846 9.82854 27.1382 9.75629 26.9273 9.75629C26.7223 9.75629 26.5748 9.82854 26.485 9.97303C26.3971 10.1156 26.3532 10.2776 26.3532 10.4592ZM25.9783 15.333L30.1023 9.33452H30.7701L26.6461 15.333H25.9783ZM36.381 15.4267C35.9748 15.4267 35.6185 15.3301 35.3119 15.1368C35.0073 14.9435 34.7691 14.673 34.5973 14.3254C34.4274 13.9779 34.3424 13.5717 34.3424 13.107C34.3424 12.6384 34.4274 12.2293 34.5973 11.8798C34.7691 11.5303 35.0073 11.2588 35.3119 11.0655C35.6185 10.8722 35.9748 10.7756 36.381 10.7756C36.7871 10.7756 37.1425 10.8722 37.4471 11.0655C37.7537 11.2588 37.9919 11.5303 38.1618 11.8798C38.3336 12.2293 38.4195 12.6384 38.4195 13.107C38.4195 13.5717 38.3336 13.9779 38.1618 14.3254C37.9919 14.673 37.7537 14.9435 37.4471 15.1368C37.1425 15.3301 36.7871 15.4267 36.381 15.4267ZM36.381 14.8058C36.6895 14.8058 36.9433 14.7267 37.1425 14.5686C37.3417 14.4104 37.4891 14.2024 37.5848 13.9447C37.6805 13.6869 37.7283 13.4077 37.7283 13.107C37.7283 12.8063 37.6805 12.5261 37.5848 12.2664C37.4891 12.0067 37.3417 11.7968 37.1425 11.6367C36.9433 11.4766 36.6895 11.3965 36.381 11.3965C36.0725 11.3965 35.8186 11.4766 35.6195 11.6367C35.4203 11.7968 35.2729 12.0067 35.1772 12.2664C35.0815 12.5261 35.0337 12.8063 35.0337 13.107C35.0337 13.4077 35.0815 13.6869 35.1772 13.9447C35.2729 14.2024 35.4203 14.4104 35.6195 14.5686C35.8186 14.7267 36.0725 14.8058 36.381 14.8058ZM41.3956 10.8341V11.4199H38.9704V10.8341H41.3956ZM39.6968 15.333V10.2132C39.6968 9.95546 39.7574 9.74067 39.8784 9.56884C39.9995 9.39701 40.1567 9.26813 40.35 9.18222C40.5433 9.0963 40.7473 9.05334 40.9621 9.05334C41.132 9.05334 41.2706 9.06701 41.378 9.09435C41.4854 9.12168 41.5655 9.14707 41.6182 9.1705L41.419 9.76801C41.3839 9.75629 41.3351 9.74165 41.2726 9.72407C41.2121 9.7065 41.132 9.69771 41.0324 9.69771C40.804 9.69771 40.639 9.75531 40.5374 9.87052C40.4378 9.98572 40.3881 10.1546 40.3881 10.3772V15.333H39.6968ZM46.4757 10.8341V11.4199L44.1442 11.4199V10.8341H46.4757ZM44.8237 9.75629H45.515V14.0443C45.515 14.2395 45.5433 14.386 45.5999 14.4836C45.6585 14.5793 45.7327 14.6437 45.8225 14.6769C45.9143 14.7082 46.0109 14.7238 46.1125 14.7238C46.1886 14.7238 46.2511 14.7199 46.2999 14.7121C46.3488 14.7023 46.3878 14.6945 46.4171 14.6886L46.5577 15.3096C46.5108 15.3271 46.4454 15.3447 46.3614 15.3623C46.2775 15.3818 46.1711 15.3916 46.0422 15.3916C45.8469 15.3916 45.6556 15.3496 45.4681 15.2656C45.2826 15.1817 45.1284 15.0538 45.0053 14.8819C44.8843 14.7101 44.8237 14.4934 44.8237 14.2317V9.75629ZM48.2209 12.6267V15.333H47.5296V9.33452H48.2209V11.5371H48.2794C48.3849 11.3047 48.543 11.1202 48.7539 10.9835C48.9668 10.8449 49.2499 10.7756 49.6033 10.7756C49.9099 10.7756 50.1784 10.8371 50.4088 10.9601C50.6392 11.0812 50.8179 11.2676 50.9448 11.5195C51.0736 11.7695 51.1381 12.0877 51.1381 12.4744V15.333H50.4469V12.5212C50.4469 12.1639 50.3541 11.8876 50.1686 11.6923C49.9851 11.4951 49.7302 11.3965 49.4041 11.3965C49.1776 11.3965 48.9746 11.4443 48.7949 11.54C48.6172 11.6357 48.4766 11.7753 48.3732 11.9589C48.2716 12.1424 48.2209 12.365 48.2209 12.6267ZM54.2064 15.4267C53.7729 15.4267 53.399 15.3311 53.0846 15.1397C52.7722 14.9464 52.5311 14.6769 52.3612 14.3313C52.1933 13.9837 52.1093 13.5795 52.1093 13.1187C52.1093 12.6579 52.1933 12.2518 52.3612 11.9003C52.5311 11.5469 52.7673 11.2715 53.07 11.0743C53.3746 10.8751 53.73 10.7756 54.1361 10.7756C54.3704 10.7756 54.6018 10.8146 54.8303 10.8927C55.0588 10.9708 55.2667 11.0977 55.4542 11.2735C55.6416 11.4473 55.791 11.6777 55.9023 11.9647C56.0136 12.2518 56.0692 12.6052 56.0692 13.025V13.3179H52.6014V12.7204H55.3663C55.3663 12.4665 55.3155 12.24 55.214 12.0409C55.1144 11.8417 54.9719 11.6845 54.7864 11.5693C54.6028 11.4541 54.3861 11.3965 54.1361 11.3965C53.8608 11.3965 53.6226 11.4648 53.4215 11.6015C53.2223 11.7363 53.069 11.912 52.9616 12.1287C52.8542 12.3455 52.8005 12.5778 52.8005 12.8258V13.2242C52.8005 13.5639 52.8591 13.8519 52.9763 14.0882C53.0954 14.3225 53.2604 14.5012 53.4713 14.6242C53.6821 14.7453 53.9272 14.8058 54.2064 14.8058C54.388 14.8058 54.552 14.7804 54.6985 14.7296C54.8469 14.6769 54.9748 14.5988 55.0822 14.4953C55.1896 14.3899 55.2726 14.2591 55.3311 14.1028L55.9989 14.2903C55.9286 14.5168 55.8105 14.716 55.6445 14.8878C55.4786 15.0577 55.2735 15.1905 55.0295 15.2861C54.7854 15.3799 54.511 15.4267 54.2064 15.4267ZM59.2755 15.333V10.8341H59.9433V11.5371H60.0019C60.0956 11.2969 60.2469 11.1104 60.4559 10.9777C60.6648 10.8429 60.9157 10.7756 61.2086 10.7756C61.5054 10.7756 61.7524 10.8429 61.9496 10.9777C62.1488 11.1104 62.304 11.2969 62.4153 11.5371H62.4622C62.5774 11.3047 62.7502 11.1202 62.9806 10.9835C63.211 10.8449 63.4873 10.7756 63.8095 10.7756C64.2118 10.7756 64.5408 10.9015 64.7966 11.1534C65.0524 11.4033 65.1803 11.7929 65.1803 12.322V15.333H64.489V12.322C64.489 11.9901 64.3982 11.7529 64.2166 11.6103C64.035 11.4678 63.8212 11.3965 63.5752 11.3965C63.2589 11.3965 63.0138 11.4922 62.84 11.6835C62.6662 11.8729 62.5794 12.1131 62.5794 12.4041V15.333H61.8764V12.2518C61.8764 11.996 61.7934 11.79 61.6274 11.6337C61.4615 11.4756 61.2477 11.3965 60.986 11.3965C60.8064 11.3965 60.6384 11.4443 60.4822 11.54C60.328 11.6357 60.203 11.7685 60.1073 11.9384C60.0136 12.1063 59.9667 12.3006 59.9667 12.5212V15.333H59.2755ZM68.2479 15.4267C67.8144 15.4267 67.4404 15.3311 67.1261 15.1397C66.8137 14.9464 66.5725 14.6769 66.4026 14.3313C66.2347 13.9837 66.1507 13.5795 66.1507 13.1187C66.1507 12.6579 66.2347 12.2518 66.4026 11.9003C66.5725 11.5469 66.8088 11.2715 67.1114 11.0743C67.416 10.8751 67.7714 10.7756 68.1776 10.7756C68.4119 10.7756 68.6433 10.8146 68.8717 10.8927C69.1002 10.9708 69.3081 11.0977 69.4956 11.2735C69.683 11.4473 69.8324 11.6777 69.9437 11.9647C70.055 12.2518 70.1107 12.6052 70.1107 13.025V13.3179H66.6428V12.7204H69.4077C69.4077 12.4665 69.357 12.24 69.2554 12.0409C69.1558 11.8417 69.0133 11.6845 68.8278 11.5693C68.6442 11.4541 68.4275 11.3965 68.1776 11.3965C67.9022 11.3965 67.664 11.4648 67.4629 11.6015C67.2637 11.7363 67.1105 11.912 67.0031 12.1287C66.8957 12.3455 66.842 12.5778 66.842 12.8258V13.2242C66.842 13.5639 66.9005 13.8519 67.0177 14.0882C67.1368 14.3225 67.3018 14.5012 67.5127 14.6242C67.7236 14.7453 67.9686 14.8058 68.2479 14.8058C68.4295 14.8058 68.5935 14.7804 68.7399 14.7296C68.8883 14.6769 69.0162 14.5988 69.1236 14.4953C69.231 14.3899 69.314 14.2591 69.3726 14.1028L70.0404 14.2903C69.9701 14.5168 69.8519 14.716 69.686 14.8878C69.52 15.0577 69.315 15.1905 69.0709 15.2861C68.8268 15.3799 68.5525 15.4267 68.2479 15.4267ZM72.7785 15.4267C72.4036 15.4267 72.0726 15.332 71.7856 15.1426C71.4985 14.9513 71.274 14.6818 71.1119 14.3342C70.9498 13.9847 70.8688 13.5717 70.8688 13.0953C70.8688 12.6228 70.9498 12.2127 71.1119 11.8651C71.274 11.5176 71.4995 11.2491 71.7885 11.0597C72.0775 10.8703 72.4114 10.7756 72.7902 10.7756C73.0831 10.7756 73.3145 10.8244 73.4844 10.922C73.6562 11.0177 73.787 11.127 73.8768 11.2501C73.9686 11.3711 74.0399 11.4707 74.0906 11.5488H74.1492V9.33452H74.8405V15.333H74.1727V14.6418H74.0906C74.0399 14.7238 73.9676 14.8273 73.8739 14.9522C73.7802 15.0753 73.6464 15.1856 73.4726 15.2832C73.2989 15.3789 73.0675 15.4267 72.7785 15.4267ZM72.8722 14.8058C73.1495 14.8058 73.3838 14.7335 73.5751 14.5891C73.7665 14.4426 73.912 14.2405 74.0116 13.9828C74.1111 13.7231 74.1609 13.4233 74.1609 13.0836C74.1609 12.7477 74.1121 12.4539 74.0145 12.202C73.9169 11.9481 73.7724 11.7509 73.581 11.6103C73.3896 11.4678 73.1534 11.3965 72.8722 11.3965C72.5793 11.3965 72.3352 11.4717 72.14 11.622C71.9467 11.7704 71.8012 11.9725 71.7036 12.2283C71.6079 12.4822 71.56 12.7672 71.56 13.0836C71.56 13.4038 71.6088 13.6947 71.7065 13.9564C71.8061 14.2161 71.9525 14.4231 72.1458 14.5773C72.3411 14.7296 72.5832 14.8058 72.8722 14.8058ZM76.1199 15.333V10.8341H76.8112V15.333H76.1199ZM76.4714 10.0843C76.3367 10.0843 76.2205 10.0384 76.1229 9.94667C76.0272 9.8549 75.9793 9.74457 75.9793 9.6157C75.9793 9.48683 76.0272 9.3765 76.1229 9.28473C76.2205 9.19296 76.3367 9.14707 76.4714 9.14707C76.6061 9.14707 76.7213 9.19296 76.817 9.28473C76.9147 9.3765 76.9635 9.48683 76.9635 9.6157C76.9635 9.74457 76.9147 9.8549 76.817 9.94667C76.7213 10.0384 76.6061 10.0843 76.4714 10.0843ZM79.3186 15.4384C79.0335 15.4384 78.7748 15.3848 78.5424 15.2774C78.3101 15.168 78.1256 15.0108 77.9889 14.8058C77.8522 14.5988 77.7838 14.3489 77.7838 14.056C77.7838 13.7982 77.8346 13.5893 77.9361 13.4292C78.0377 13.2671 78.1734 13.1402 78.3433 13.0484C78.5132 12.9567 78.7006 12.8883 78.9056 12.8434C79.1126 12.7965 79.3206 12.7594 79.5295 12.7321C79.8029 12.697 80.0245 12.6706 80.1944 12.653C80.3662 12.6335 80.4912 12.6013 80.5693 12.5564C80.6493 12.5115 80.6894 12.4333 80.6894 12.322V12.2986C80.6894 12.0096 80.6103 11.7851 80.4521 11.625C80.2959 11.4648 80.0587 11.3848 79.7404 11.3848C79.4104 11.3848 79.1517 11.457 78.9642 11.6015C78.7768 11.746 78.645 11.9003 78.5688 12.0643L77.9127 11.83C78.0299 11.5566 78.1861 11.3438 78.3813 11.1915C78.5786 11.0372 78.7934 10.9298 79.0257 10.8693C79.26 10.8068 79.4904 10.7756 79.717 10.7756C79.8614 10.7756 80.0274 10.7931 80.2149 10.8283C80.4043 10.8615 80.5868 10.9308 80.7626 11.0362C80.9403 11.1417 81.0877 11.3008 81.2049 11.5137C81.322 11.7265 81.3806 12.0116 81.3806 12.3689V15.333H80.6894V14.7238H80.6542C80.6074 14.8214 80.5292 14.9259 80.4199 15.0372C80.3106 15.1485 80.1651 15.2432 79.9835 15.3213C79.8019 15.3994 79.5803 15.4384 79.3186 15.4384ZM79.4241 14.8175C79.6974 14.8175 79.9278 14.7638 80.1153 14.6564C80.3047 14.549 80.4472 14.4104 80.5429 14.2405C80.6405 14.0706 80.6894 13.892 80.6894 13.7045V13.0719C80.6601 13.107 80.5956 13.1392 80.4961 13.1685C80.3984 13.1959 80.2852 13.2203 80.1563 13.2417C80.0294 13.2613 79.9054 13.2788 79.7843 13.2945C79.6652 13.3081 79.5686 13.3198 79.4944 13.3296C79.3147 13.353 79.1468 13.3911 78.9906 13.4438C78.8363 13.4946 78.7113 13.5717 78.6157 13.6752C78.5219 13.7768 78.4751 13.9154 78.4751 14.0911C78.4751 14.3313 78.5639 14.5129 78.7416 14.6359C78.9213 14.757 79.1487 14.8175 79.4241 14.8175ZM86.8004 10.8341V11.4199H84.3752V10.8341L86.8004 10.8341ZM85.1016 15.333V10.2132C85.1016 9.95546 85.1621 9.74067 85.2832 9.56884C85.4043 9.39701 85.5615 9.26813 85.7548 9.18222C85.9481 9.0963 86.1521 9.05334 86.3669 9.05334C86.5368 9.05334 86.6754 9.06701 86.7828 9.09435C86.8902 9.12168 86.9703 9.14707 87.023 9.1705L86.8238 9.76801C86.7887 9.75629 86.7399 9.74165 86.6774 9.72407C86.6169 9.7065 86.5368 9.69771 86.4372 9.69771C86.2088 9.69771 86.0438 9.75531 85.9422 9.87052C85.8426 9.98572 85.7928 10.1546 85.7928 10.3772V15.333H85.1016ZM89.3291 15.4267C88.9229 15.4267 88.5666 15.3301 88.26 15.1368C87.9554 14.9435 87.7172 14.673 87.5454 14.3254C87.3755 13.9779 87.2905 13.5717 87.2905 13.107C87.2905 12.6384 87.3755 12.2293 87.5454 11.8798C87.7172 11.5303 87.9554 11.2588 88.26 11.0655C88.5666 10.8722 88.9229 10.7756 89.3291 10.7756C89.7352 10.7756 90.0906 10.8722 90.3952 11.0655C90.7018 11.2588 90.94 11.5303 91.1099 11.8798C91.2817 12.2293 91.3676 12.6384 91.3676 13.107C91.3676 13.5717 91.2817 13.9779 91.1099 14.3254C90.94 14.673 90.7018 14.9435 90.3952 15.1368C90.0906 15.3301 89.7352 15.4267 89.3291 15.4267ZM89.3291 14.8058C89.6376 14.8058 89.8914 14.7267 90.0906 14.5686C90.2898 14.4104 90.4372 14.2024 90.5329 13.9447C90.6286 13.6869 90.6764 13.4077 90.6764 13.107C90.6764 12.8063 90.6286 12.5261 90.5329 12.2664C90.4372 12.0067 90.2898 11.7968 90.0906 11.6367C89.8914 11.4766 89.6376 11.3965 89.3291 11.3965C89.0206 11.3965 88.7667 11.4766 88.5676 11.6367C88.3684 11.7968 88.221 12.0067 88.1253 12.2664C88.0296 12.5261 87.9818 12.8063 87.9818 13.107C87.9818 13.4077 88.0296 13.6869 88.1253 13.9447C88.221 14.2024 88.3684 14.4104 88.5676 14.5686C88.7667 14.7267 89.0206 14.8058 89.3291 14.8058ZM92.3403 15.333V10.8341H93.0081V11.5137H93.055C93.137 11.2911 93.2854 11.1104 93.5002 10.9718C93.715 10.8332 93.9571 10.7638 94.2265 10.7638C94.2773 10.7638 94.3408 10.7648 94.4169 10.7668C94.4931 10.7687 94.5507 10.7717 94.5897 10.7756V11.4785C94.5663 11.4727 94.5126 11.4639 94.4286 11.4522C94.3466 11.4385 94.2597 11.4316 94.168 11.4316C93.9493 11.4316 93.754 11.4775 93.5822 11.5693C93.4123 11.6591 93.2776 11.7841 93.178 11.9442C93.0803 12.1024 93.0315 12.283 93.0315 12.4861V15.333H92.3403ZM11.2615 26.333L12.2456 20.3345H12.8314L11.8473 26.333H11.2615ZM8.5317 24.6694L8.62543 24.0836H13.1009L13.0071 24.6694H8.5317ZM9.15264 26.333L10.1368 20.3345H10.7226L9.73843 26.333H9.15264ZM8.88318 22.584L8.9769 21.9982H13.4523L13.3586 22.584H8.88318ZM17.3313 22.8417L16.7103 23.0174C16.6713 22.9139 16.6137 22.8134 16.5375 22.7158C16.4633 22.6162 16.3618 22.5342 16.2329 22.4697C16.104 22.4053 15.939 22.3731 15.7379 22.3731C15.4626 22.3731 15.2332 22.4365 15.0496 22.5635C14.868 22.6884 14.7772 22.8476 14.7772 23.0409C14.7772 23.2127 14.8397 23.3484 14.9647 23.448C15.0896 23.5476 15.2849 23.6306 15.5505 23.697L16.2183 23.861C16.6205 23.9586 16.9202 24.108 17.1174 24.3091C17.3147 24.5083 17.4133 24.765 17.4133 25.0794C17.4133 25.3372 17.3391 25.5676 17.1907 25.7706C17.0442 25.9737 16.8392 26.1338 16.5756 26.251C16.312 26.3682 16.0054 26.4267 15.6559 26.4267C15.197 26.4267 14.8172 26.3271 14.5165 26.128C14.2158 25.9288 14.0255 25.6379 13.9454 25.2552L14.6015 25.0911C14.664 25.3333 14.7821 25.5149 14.9559 25.6359C15.1316 25.757 15.3611 25.8175 15.6442 25.8175C15.9664 25.8175 16.2222 25.7492 16.4116 25.6125C16.6029 25.4738 16.6986 25.3079 16.6986 25.1146C16.6986 24.9584 16.6439 24.8275 16.5346 24.7221C16.4252 24.6147 16.2573 24.5346 16.0308 24.4819L15.281 24.3062C14.869 24.2085 14.5663 24.0572 14.373 23.8522C14.1817 23.6452 14.086 23.3865 14.086 23.076C14.086 22.8222 14.1573 22.5976 14.2998 22.4024C14.4443 22.2071 14.6405 22.0538 14.8885 21.9425C15.1385 21.8312 15.4216 21.7756 15.7379 21.7756C16.1831 21.7756 16.5326 21.8732 16.7865 22.0685C17.0423 22.2637 17.2239 22.5215 17.3313 22.8417ZM21.2065 24.4936V21.8341H21.8978V26.333H21.2065V25.5715H21.1597C21.0542 25.7999 20.8902 25.9942 20.6676 26.1543C20.445 26.3125 20.1638 26.3916 19.8241 26.3916C19.5429 26.3916 19.2929 26.3301 19.0742 26.2071C18.8556 26.0821 18.6837 25.8946 18.5588 25.6447C18.4338 25.3928 18.3713 25.0755 18.3713 24.6928V21.8341H19.0625V24.6459C19.0625 24.974 19.1543 25.2356 19.3379 25.4309C19.5234 25.6262 19.7596 25.7238 20.0467 25.7238C20.2185 25.7238 20.3933 25.6799 20.5709 25.592C20.7506 25.5041 20.9009 25.3694 21.022 25.1878C21.145 25.0062 21.2065 24.7748 21.2065 24.4936ZM23.7725 23.6267V26.333H23.0813V21.8341H23.7491V22.5371H23.8077C23.9131 22.3086 24.0732 22.1251 24.288 21.9864C24.5028 21.8459 24.7801 21.7756 25.1199 21.7756C25.4245 21.7756 25.691 21.838 25.9195 21.963C26.1479 22.086 26.3256 22.2735 26.4525 22.5254C26.5795 22.7753 26.6429 23.0916 26.6429 23.4744V26.333H25.9517V23.5212C25.9517 23.1678 25.8599 22.8925 25.6764 22.6953C25.4928 22.4961 25.2409 22.3965 24.9207 22.3965C24.7 22.3965 24.5028 22.4443 24.329 22.54C24.1572 22.6357 24.0215 22.7753 23.9219 22.9589C23.8223 23.1424 23.7725 23.365 23.7725 23.6267ZM27.8235 26.333V21.8341H28.4913V22.5137H28.5382C28.6202 22.2911 28.7686 22.1104 28.9834 21.9718C29.1982 21.8332 29.4403 21.7638 29.7098 21.7638C29.7606 21.7638 29.824 21.7648 29.9002 21.7668C29.9763 21.7687 30.0339 21.7717 30.073 21.7756V22.4785C30.0495 22.4727 29.9958 22.4639 29.9119 22.4522C29.8299 22.4385 29.743 22.4316 29.6512 22.4316C29.4325 22.4316 29.2372 22.4775 29.0654 22.5693C28.8955 22.6591 28.7608 22.7841 28.6612 22.9442C28.5636 23.1024 28.5148 23.283 28.5148 23.4861V26.333H27.8235ZM30.8099 26.333V21.8341H31.5011V26.333H30.8099ZM31.1613 21.0843C31.0266 21.0843 30.9104 21.0384 30.8128 20.9467C30.7171 20.8549 30.6693 20.7446 30.6693 20.6157C30.6693 20.4868 30.7171 20.3765 30.8128 20.2847C30.9104 20.193 31.0266 20.1471 31.1613 20.1471C31.2961 20.1471 31.4113 20.193 31.507 20.2847C31.6046 20.3765 31.6534 20.4868 31.6534 20.6157C31.6534 20.7446 31.6046 20.8549 31.507 20.9467C31.4113 21.0384 31.2961 21.0843 31.1613 21.0843ZM35.8714 22.8417L35.2504 23.0174C35.2114 22.9139 35.1538 22.8134 35.0776 22.7158C35.0034 22.6162 34.9019 22.5342 34.773 22.4697C34.6441 22.4053 34.4791 22.3731 34.278 22.3731C34.0027 22.3731 33.7733 22.4365 33.5897 22.5635C33.4081 22.6884 33.3173 22.8476 33.3173 23.0409C33.3173 23.2127 33.3798 23.3484 33.5048 23.448C33.6297 23.5476 33.825 23.6306 34.0906 23.697L34.7584 23.861C35.1606 23.9586 35.4603 24.108 35.6575 24.3091C35.8548 24.5083 35.9534 24.765 35.9534 25.0794C35.9534 25.3372 35.8792 25.5676 35.7308 25.7706C35.5843 25.9737 35.3793 26.1338 35.1157 26.251C34.8521 26.3682 34.5455 26.4267 34.196 26.4267C33.7371 26.4267 33.3573 26.3271 33.0566 26.128C32.7559 25.9288 32.5655 25.6379 32.4855 25.2552L33.1416 25.0911C33.2041 25.3333 33.3222 25.5149 33.496 25.6359C33.6717 25.757 33.9011 25.8175 34.1843 25.8175C34.5065 25.8175 34.7623 25.7492 34.9517 25.6125C35.143 25.4738 35.2387 25.3079 35.2387 25.1146C35.2387 24.9584 35.184 24.8275 35.0747 24.7221C34.9653 24.6147 34.7974 24.5346 34.5709 24.4819L33.8211 24.3062C33.4091 24.2085 33.1064 24.0572 32.9131 23.8522C32.7218 23.6452 32.6261 23.3865 32.6261 23.076C32.6261 22.8222 32.6974 22.5976 32.8399 22.4024C32.9844 22.2071 33.1806 22.0538 33.4286 21.9425C33.6785 21.8312 33.9617 21.7756 34.278 21.7756C34.7232 21.7756 35.0727 21.8732 35.3266 22.0685C35.5824 22.2637 35.764 22.5215 35.8714 22.8417ZM38.7976 26.4267C38.3642 26.4267 37.9902 26.3311 37.6759 26.1397C37.3634 25.9464 37.1223 25.6769 36.9524 25.3313C36.7845 24.9837 36.7005 24.5795 36.7005 24.1187C36.7005 23.6579 36.7845 23.2518 36.9524 22.9003C37.1223 22.5469 37.3585 22.2715 37.6612 22.0743C37.9658 21.8751 38.3212 21.7756 38.7273 21.7756C38.9617 21.7756 39.193 21.8146 39.4215 21.8927C39.65 21.9708 39.8579 22.0977 40.0454 22.2735C40.2328 22.4473 40.3822 22.6777 40.4935 22.9647C40.6048 23.2518 40.6604 23.6052 40.6604 24.025V24.3179L37.1926 24.3179V23.7204L39.9575 23.7204C39.9575 23.4665 39.9067 23.24 39.8052 23.0409C39.7056 22.8417 39.5631 22.6845 39.3776 22.5693C39.194 22.4541 38.9773 22.3965 38.7273 22.3965C38.452 22.3965 38.2138 22.4648 38.0127 22.6015C37.8135 22.7363 37.6602 22.912 37.5528 23.1287C37.4454 23.3455 37.3917 23.5778 37.3917 23.8258V24.2242C37.3917 24.5639 37.4503 24.8519 37.5675 25.0882C37.6866 25.3225 37.8516 25.5012 38.0625 25.6242C38.2734 25.7453 38.5184 25.8058 38.7976 25.8058C38.9792 25.8058 39.1433 25.7804 39.2897 25.7296C39.4381 25.6769 39.566 25.5988 39.6734 25.4953C39.7808 25.3899 39.8638 25.2591 39.9224 25.1028L40.5902 25.2903C40.5199 25.5168 40.4017 25.716 40.2358 25.8878C40.0698 26.0577 39.8648 26.1905 39.6207 26.2861C39.3766 26.3799 39.1022 26.4267 38.7976 26.4267ZM45.1906 26.4384C44.9055 26.4384 44.6468 26.3848 44.4144 26.2774C44.1821 26.168 43.9975 26.0108 43.8609 25.8058C43.7242 25.5988 43.6558 25.3489 43.6558 25.056C43.6558 24.7982 43.7066 24.5893 43.8081 24.4292C43.9097 24.2671 44.0454 24.1402 44.2153 24.0484C44.3851 23.9567 44.5726 23.8883 44.7776 23.8434C44.9846 23.7965 45.1925 23.7594 45.4015 23.7321C45.6748 23.697 45.8965 23.6706 46.0664 23.653C46.2382 23.6335 46.3632 23.6013 46.4413 23.5564C46.5213 23.5115 46.5613 23.4333 46.5613 23.322V23.2986C46.5613 23.0096 46.4823 22.7851 46.3241 22.625C46.1679 22.4648 45.9306 22.3848 45.6124 22.3848C45.2824 22.3848 45.0236 22.457 44.8362 22.6015C44.6487 22.746 44.5169 22.9003 44.4408 23.0643L43.7847 22.83C43.9019 22.5566 44.0581 22.3438 44.2533 22.1915C44.4505 22.0372 44.6653 21.9298 44.8977 21.8693C45.132 21.8068 45.3624 21.7756 45.5889 21.7756C45.7334 21.7756 45.8994 21.7931 46.0869 21.8283C46.2763 21.8615 46.4588 21.9308 46.6346 22.0362C46.8123 22.1417 46.9597 22.3008 47.0768 22.5137C47.194 22.7265 47.2526 23.0116 47.2526 23.3689V26.333H46.5613V25.7238H46.5262C46.4793 25.8214 46.4012 25.9259 46.2919 26.0372C46.1825 26.1485 46.0371 26.2432 45.8555 26.3213C45.6739 26.3994 45.4522 26.4384 45.1906 26.4384ZM45.296 25.8175C45.5694 25.8175 45.7998 25.7638 45.9873 25.6564C46.1767 25.549 46.3192 25.4104 46.4149 25.2405C46.5125 25.0706 46.5613 24.892 46.5613 24.7045V24.0719C46.5321 24.107 46.4676 24.1392 46.368 24.1685C46.2704 24.1959 46.1571 24.2203 46.0283 24.2417C45.9014 24.2613 45.7774 24.2788 45.6563 24.2945C45.5372 24.3081 45.4405 24.3198 45.3663 24.3296C45.1867 24.353 45.0188 24.3911 44.8626 24.4438C44.7083 24.4946 44.5833 24.5717 44.4876 24.6752C44.3939 24.7768 44.3471 24.9154 44.3471 25.0911C44.3471 25.3313 44.4359 25.5129 44.6136 25.6359C44.7932 25.757 45.0207 25.8175 45.296 25.8175ZM48.4317 26.333V21.8341H49.0995V22.5137H49.1464C49.2284 22.2911 49.3768 22.1104 49.5916 21.9718C49.8064 21.8332 50.0485 21.7638 50.318 21.7638C50.3688 21.7638 50.4322 21.7648 50.5084 21.7668C50.5845 21.7687 50.6421 21.7717 50.6812 21.7756V22.4785C50.6577 22.4727 50.604 22.4639 50.5201 22.4522C50.4381 22.4385 50.3512 22.4316 50.2594 22.4316C50.0407 22.4316 49.8454 22.4775 49.6736 22.5693C49.5037 22.6591 49.369 22.7841 49.2694 22.9442C49.1718 23.1024 49.123 23.283 49.123 23.4861V26.333H48.4317ZM53.1674 26.4267C52.7339 26.4267 52.36 26.3311 52.0456 26.1397C51.7332 25.9464 51.492 25.6769 51.3221 25.3313C51.1542 24.9837 51.0703 24.5795 51.0703 24.1187C51.0703 23.6579 51.1542 23.2518 51.3221 22.9003C51.492 22.5469 51.7283 22.2715 52.0309 22.0743C52.3356 21.8751 52.6909 21.7756 53.0971 21.7756C53.3314 21.7756 53.5628 21.8146 53.7912 21.8927C54.0197 21.9708 54.2277 22.0977 54.4151 22.2735C54.6026 22.4473 54.7519 22.6777 54.8632 22.9647C54.9745 23.2518 55.0302 23.6052 55.0302 24.025V24.3179H51.5623V23.7204H54.3272C54.3272 23.4665 54.2765 23.24 54.1749 23.0409C54.0754 22.8417 53.9328 22.6845 53.7473 22.5693C53.5638 22.4541 53.347 22.3965 53.0971 22.3965C52.8218 22.3965 52.5835 22.4648 52.3824 22.6015C52.1833 22.7363 52.03 22.912 51.9226 23.1287C51.8152 23.3455 51.7615 23.5778 51.7615 23.8258V24.2242C51.7615 24.5639 51.8201 24.8519 51.9372 25.0882C52.0563 25.3225 52.2213 25.5012 52.4322 25.6242C52.6431 25.7453 52.8882 25.8058 53.1674 25.8058C53.349 25.8058 53.513 25.7804 53.6594 25.7296C53.8078 25.6769 53.9357 25.5988 54.0431 25.4953C54.1505 25.3899 54.2335 25.2591 54.2921 25.1028L54.9599 25.2903C54.8896 25.5168 54.7715 25.716 54.6055 25.8878C54.4395 26.0577 54.2345 26.1905 53.9904 26.2861C53.7463 26.3799 53.472 26.4267 53.1674 26.4267ZM58.2365 28.0201V21.8341H58.9043V22.5488H58.9863C59.037 22.4707 59.1073 22.3711 59.1971 22.2501C59.2889 22.127 59.4197 22.0177 59.5896 21.922C59.7615 21.8244 59.9938 21.7756 60.2867 21.7756C60.6655 21.7756 60.9994 21.8703 61.2884 22.0597C61.5774 22.2491 61.8029 22.5176 61.965 22.8651C62.1271 23.2127 62.2081 23.6228 62.2081 24.0953C62.2081 24.5717 62.1271 24.9847 61.965 25.3342C61.8029 25.6818 61.5784 25.9513 61.2913 26.1426C61.0043 26.332 60.6733 26.4267 60.2984 26.4267C60.0094 26.4267 59.7781 26.3789 59.6043 26.2832C59.4305 26.1856 59.2967 26.0753 59.203 25.9522C59.1093 25.8273 59.037 25.7238 58.9863 25.6418H58.9277V28.0201H58.2365ZM58.916 24.0836C58.916 24.4233 58.9658 24.7231 59.0653 24.9828C59.1649 25.2405 59.3104 25.4426 59.5018 25.5891C59.6931 25.7335 59.9274 25.8058 60.2047 25.8058C60.4937 25.8058 60.7348 25.7296 60.9282 25.5773C61.1234 25.4231 61.2699 25.2161 61.3675 24.9564C61.4671 24.6947 61.5169 24.4038 61.5169 24.0836C61.5169 23.7672 61.4681 23.4822 61.3704 23.2283C61.2747 22.9725 61.1293 22.7704 60.934 22.622C60.7407 22.4717 60.4976 22.3965 60.2047 22.3965C59.9235 22.3965 59.6873 22.4678 59.4959 22.6103C59.3045 22.7509 59.16 22.9481 59.0624 23.202C58.9648 23.4539 58.916 23.7477 58.916 24.0836ZM63.8713 23.6267V26.333H63.18V20.3345H63.8713V22.5371H63.9299C64.0353 22.3047 64.1935 22.1202 64.4043 21.9835C64.6172 21.8449 64.9003 21.7756 65.2537 21.7756C65.5603 21.7756 65.8288 21.8371 66.0592 21.9601C66.2896 22.0812 66.4683 22.2676 66.5952 22.5195C66.7241 22.7695 66.7885 23.0877 66.7885 23.4744V26.333H66.0973V23.5212C66.0973 23.1639 66.0045 22.8876 65.819 22.6923C65.6355 22.4951 65.3807 22.3965 65.0546 22.3965C64.8281 22.3965 64.625 22.4443 64.4454 22.54C64.2677 22.6357 64.1271 22.7753 64.0236 22.9589C63.922 23.1424 63.8713 23.365 63.8713 23.6267ZM69.7983 26.4267C69.3921 26.4267 69.0358 26.3301 68.7292 26.1368C68.4246 25.9435 68.1864 25.673 68.0145 25.3254C67.8447 24.9779 67.7597 24.5717 67.7597 24.107C67.7597 23.6384 67.8447 23.2293 68.0145 22.8798C68.1864 22.5303 68.4246 22.2588 68.7292 22.0655C69.0358 21.8722 69.3921 21.7756 69.7983 21.7756C70.2044 21.7756 70.5598 21.8722 70.8644 22.0655C71.171 22.2588 71.4092 22.5303 71.5791 22.8798C71.7509 23.2293 71.8368 23.6384 71.8368 24.107C71.8368 24.5717 71.7509 24.9779 71.5791 25.3254C71.4092 25.673 71.171 25.9435 70.8644 26.1368C70.5598 26.3301 70.2044 26.4267 69.7983 26.4267ZM69.7983 25.8058C70.1068 25.8058 70.3606 25.7267 70.5598 25.5686C70.759 25.4104 70.9064 25.2024 71.0021 24.9447C71.0977 24.6869 71.1456 24.4077 71.1456 24.107C71.1456 23.8063 71.0977 23.5261 71.0021 23.2664C70.9064 23.0067 70.759 22.7968 70.5598 22.6367C70.3606 22.4766 70.1068 22.3965 69.7983 22.3965C69.4898 22.3965 69.2359 22.4766 69.0367 22.6367C68.8376 22.7968 68.6901 23.0067 68.5945 23.2664C68.4988 23.5261 68.451 23.8063 68.451 24.107C68.451 24.4077 68.4988 24.6869 68.5945 24.9447C68.6901 25.2024 68.8376 25.4104 69.0367 25.5686C69.2359 25.7267 69.4898 25.8058 69.7983 25.8058ZM74.766 21.8341V22.4199H72.4346V21.8341H74.766ZM73.1141 20.7563H73.8053V25.0443C73.8053 25.2395 73.8336 25.386 73.8903 25.4836C73.9489 25.5793 74.0231 25.6437 74.1129 25.6769C74.2046 25.7082 74.3013 25.7238 74.4028 25.7238C74.479 25.7238 74.5415 25.7199 74.5903 25.7121C74.6391 25.7023 74.6782 25.6945 74.7074 25.6886L74.848 26.3096C74.8012 26.3271 74.7358 26.3447 74.6518 26.3623C74.5678 26.3818 74.4614 26.3916 74.3325 26.3916C74.1373 26.3916 73.9459 26.3496 73.7585 26.2656C73.573 26.1817 73.4187 26.0538 73.2957 25.8819C73.1746 25.7101 73.1141 25.4934 73.1141 25.2317V20.7563ZM77.5027 26.4267C77.0965 26.4267 76.7402 26.3301 76.4336 26.1368C76.129 25.9435 75.8908 25.673 75.7189 25.3254C75.5491 24.9779 75.4641 24.5717 75.4641 24.107C75.4641 23.6384 75.5491 23.2293 75.7189 22.8798C75.8908 22.5303 76.129 22.2588 76.4336 22.0655C76.7402 21.8722 77.0965 21.7756 77.5027 21.7756C77.9088 21.7756 78.2642 21.8722 78.5688 22.0655C78.8754 22.2588 79.1136 22.5303 79.2835 22.8798C79.4553 23.2293 79.5412 23.6384 79.5412 24.107C79.5412 24.5717 79.4553 24.9779 79.2835 25.3254C79.1136 25.673 78.8754 25.9435 78.5688 26.1368C78.2642 26.3301 77.9088 26.4267 77.5027 26.4267ZM77.5027 25.8058C77.8112 25.8058 78.065 25.7267 78.2642 25.5686C78.4634 25.4104 78.6108 25.2024 78.7065 24.9447C78.8021 24.6869 78.85 24.4077 78.85 24.107C78.85 23.8063 78.8021 23.5261 78.7065 23.2664C78.6108 23.0067 78.4634 22.7968 78.2642 22.6367C78.065 22.4766 77.8112 22.3965 77.5027 22.3965C77.1941 22.3965 76.9403 22.4766 76.7411 22.6367C76.542 22.7968 76.3945 23.0067 76.2989 23.2664C76.2032 23.5261 76.1553 23.8063 76.1553 24.107C76.1553 24.4077 76.2032 24.6869 76.2989 24.9447C76.3945 25.2024 76.542 25.4104 76.7411 25.5686C76.9403 25.7267 77.1941 25.8058 77.5027 25.8058ZM83.7006 22.8417L83.0796 23.0174C83.0406 22.9139 82.983 22.8134 82.9068 22.7158C82.8326 22.6162 82.7311 22.5342 82.6022 22.4697C82.4734 22.4053 82.3084 22.3731 82.1072 22.3731C81.8319 22.3731 81.6025 22.4365 81.4189 22.5635C81.2373 22.6884 81.1465 22.8476 81.1465 23.0409C81.1465 23.2127 81.209 23.3484 81.334 23.448C81.459 23.5476 81.6542 23.6306 81.9198 23.697L82.5876 23.861C82.9898 23.9586 83.2896 24.108 83.4868 24.3091C83.684 24.5083 83.7826 24.765 83.7826 25.0794C83.7826 25.3372 83.7084 25.5676 83.56 25.7706C83.4135 25.9737 83.2085 26.1338 82.9449 26.251C82.6813 26.3682 82.3747 26.4267 82.0252 26.4267C81.5664 26.4267 81.1866 26.3271 80.8859 26.128C80.5852 25.9288 80.3948 25.6379 80.3147 25.2552L80.9708 25.0911C81.0333 25.3333 81.1514 25.5149 81.3252 25.6359C81.5009 25.757 81.7304 25.8175 82.0135 25.8175C82.3357 25.8175 82.5915 25.7492 82.7809 25.6125C82.9722 25.4738 83.0679 25.3079 83.0679 25.1146C83.0679 24.9584 83.0133 24.8275 82.9039 24.7221C82.7946 24.6147 82.6266 24.5346 82.4001 24.4819L81.6503 24.3062C81.2383 24.2085 80.9357 24.0572 80.7423 23.8522C80.551 23.6452 80.4553 23.3865 80.4553 23.076C80.4553 22.8222 80.5266 22.5976 80.6691 22.4024C80.8136 22.2071 81.0099 22.0538 81.2578 21.9425C81.5078 21.8312 81.7909 21.7756 82.1072 21.7756C82.5524 21.7756 82.902 21.8732 83.1558 22.0685C83.4116 22.2637 83.5932 22.5215 83.7006 22.8417ZM85.2444 26.3799C85.0999 26.3799 84.9759 26.3281 84.8724 26.2246C84.7689 26.1211 84.7172 25.9972 84.7172 25.8527C84.7172 25.7082 84.7689 25.5842 84.8724 25.4807C84.9759 25.3772 85.0999 25.3254 85.2444 25.3254C85.3889 25.3254 85.5129 25.3772 85.6164 25.4807C85.7199 25.5842 85.7716 25.7082 85.7716 25.8527C85.7716 25.9483 85.7472 26.0362 85.6984 26.1163C85.6515 26.1963 85.5881 26.2608 85.508 26.3096C85.4299 26.3564 85.342 26.3799 85.2444 26.3799Z" fill="white"/>
</svg>
